<mxfile host="app.diagrams.net" agent="Mozilla/5.0 (Windows NT 10.0; Win64; x64) AppleWebKit/537.36 (KHTML, like Gecko) Chrome/129.0.0.0 Safari/537.36" version="24.8.0">
  <diagram name="ページ1" id="ITeD_45nTbWtRgC6Gwec">
    <mxGraphModel dx="600" dy="323" grid="1" gridSize="10" guides="1" tooltips="1" connect="1" arrows="1" fold="1" page="1" pageScale="1" pageWidth="827" pageHeight="1169" math="0" shadow="0">
      <root>
        <mxCell id="0" />
        <mxCell id="1" parent="0" />
        <mxCell id="NLgJp8nWloe0aNjy3LlE-38" value="" style="group" vertex="1" connectable="0" parent="1">
          <mxGeometry x="160" y="120" width="130" height="200" as="geometry" />
        </mxCell>
        <mxCell id="NLgJp8nWloe0aNjy3LlE-1" value="" style="rounded=0;whiteSpace=wrap;html=1;" vertex="1" parent="NLgJp8nWloe0aNjy3LlE-38">
          <mxGeometry width="120" height="200" as="geometry" />
        </mxCell>
        <mxCell id="NLgJp8nWloe0aNjy3LlE-4" value="ICの内部" style="text;html=1;align=center;verticalAlign=middle;whiteSpace=wrap;rounded=0;" vertex="1" parent="NLgJp8nWloe0aNjy3LlE-38">
          <mxGeometry x="30" width="60" height="30" as="geometry" />
        </mxCell>
        <mxCell id="NLgJp8nWloe0aNjy3LlE-11" value="" style="pointerEvents=1;verticalLabelPosition=bottom;shadow=0;dashed=0;align=center;html=1;verticalAlign=top;shape=mxgraph.electrical.resistors.resistor_2;rotation=90;" vertex="1" parent="NLgJp8nWloe0aNjy3LlE-38">
          <mxGeometry x="70" y="70" width="30" height="10" as="geometry" />
        </mxCell>
        <mxCell id="NLgJp8nWloe0aNjy3LlE-13" value="" style="shape=waypoint;sketch=0;fillStyle=solid;size=6;pointerEvents=1;points=[];fillColor=none;resizable=0;rotatable=0;perimeter=centerPerimeter;snapToPoint=1;" vertex="1" parent="NLgJp8nWloe0aNjy3LlE-38">
          <mxGeometry x="75" y="80" width="20" height="20" as="geometry" />
        </mxCell>
        <mxCell id="NLgJp8nWloe0aNjy3LlE-15" value="" style="endArrow=none;html=1;rounded=0;exitX=0.412;exitY=0.655;exitDx=0;exitDy=0;exitPerimeter=0;" edge="1" parent="NLgJp8nWloe0aNjy3LlE-38" source="NLgJp8nWloe0aNjy3LlE-13">
          <mxGeometry width="50" height="50" relative="1" as="geometry">
            <mxPoint x="50" y="100" as="sourcePoint" />
            <mxPoint x="120" y="90" as="targetPoint" />
          </mxGeometry>
        </mxCell>
        <mxCell id="NLgJp8nWloe0aNjy3LlE-16" value="" style="verticalLabelPosition=bottom;shadow=0;dashed=0;align=center;html=1;verticalAlign=top;shape=mxgraph.electrical.transistors.npn_transistor_5;" vertex="1" parent="NLgJp8nWloe0aNjy3LlE-38">
          <mxGeometry x="40" y="90" width="44" height="70" as="geometry" />
        </mxCell>
        <mxCell id="NLgJp8nWloe0aNjy3LlE-17" value="B" style="text;html=1;align=center;verticalAlign=middle;whiteSpace=wrap;rounded=0;" vertex="1" parent="NLgJp8nWloe0aNjy3LlE-38">
          <mxGeometry x="40" y="100" width="15" height="30" as="geometry" />
        </mxCell>
        <mxCell id="NLgJp8nWloe0aNjy3LlE-18" value="" style="endArrow=none;html=1;rounded=0;" edge="1" parent="NLgJp8nWloe0aNjy3LlE-38">
          <mxGeometry width="50" height="50" relative="1" as="geometry">
            <mxPoint x="84" y="180" as="sourcePoint" />
            <mxPoint x="84" y="160" as="targetPoint" />
            <Array as="points">
              <mxPoint x="84" y="150" />
            </Array>
          </mxGeometry>
        </mxCell>
        <mxCell id="NLgJp8nWloe0aNjy3LlE-19" value="" style="endArrow=none;html=1;rounded=0;" edge="1" parent="NLgJp8nWloe0aNjy3LlE-38">
          <mxGeometry width="50" height="50" relative="1" as="geometry">
            <mxPoint x="95" y="180" as="sourcePoint" />
            <mxPoint x="75" y="180" as="targetPoint" />
          </mxGeometry>
        </mxCell>
        <mxCell id="NLgJp8nWloe0aNjy3LlE-21" value="" style="verticalLabelPosition=top;verticalAlign=bottom;shape=mxgraph.electrical.signal_sources.vdd;shadow=0;dashed=0;align=center;strokeWidth=1;fontSize=24;html=1;flipV=1;" vertex="1" parent="NLgJp8nWloe0aNjy3LlE-38">
          <mxGeometry x="80" y="50" width="10" height="10" as="geometry" />
        </mxCell>
        <mxCell id="NLgJp8nWloe0aNjy3LlE-23" value="&lt;div style=&quot;&quot;&gt;&lt;span style=&quot;font-size: 10px;&quot;&gt;GND&lt;/span&gt;&lt;/div&gt;" style="text;html=1;align=center;verticalAlign=middle;whiteSpace=wrap;rounded=0;" vertex="1" parent="NLgJp8nWloe0aNjy3LlE-38">
          <mxGeometry x="70" y="190" width="30" as="geometry" />
        </mxCell>
        <mxCell id="NLgJp8nWloe0aNjy3LlE-27" value="" style="rounded=0;whiteSpace=wrap;html=1;" vertex="1" parent="NLgJp8nWloe0aNjy3LlE-38">
          <mxGeometry x="120" y="80" width="10" height="20" as="geometry" />
        </mxCell>
        <mxCell id="NLgJp8nWloe0aNjy3LlE-28" value="C" style="text;html=1;align=center;verticalAlign=middle;whiteSpace=wrap;rounded=0;" vertex="1" parent="NLgJp8nWloe0aNjy3LlE-38">
          <mxGeometry x="75" y="92.5" width="30" height="15" as="geometry" />
        </mxCell>
        <mxCell id="NLgJp8nWloe0aNjy3LlE-29" value="E" style="text;html=1;align=center;verticalAlign=middle;whiteSpace=wrap;rounded=0;" vertex="1" parent="NLgJp8nWloe0aNjy3LlE-38">
          <mxGeometry x="60" y="130" width="60" height="30" as="geometry" />
        </mxCell>
        <mxCell id="NLgJp8nWloe0aNjy3LlE-82" value="+5V" style="text;html=1;align=center;verticalAlign=middle;whiteSpace=wrap;rounded=0;" vertex="1" parent="NLgJp8nWloe0aNjy3LlE-38">
          <mxGeometry x="55" y="30" width="60" height="30" as="geometry" />
        </mxCell>
        <mxCell id="NLgJp8nWloe0aNjy3LlE-39" value="" style="group" vertex="1" connectable="0" parent="1">
          <mxGeometry x="320" y="120" width="130" height="200" as="geometry" />
        </mxCell>
        <mxCell id="NLgJp8nWloe0aNjy3LlE-40" value="" style="rounded=0;whiteSpace=wrap;html=1;" vertex="1" parent="NLgJp8nWloe0aNjy3LlE-39">
          <mxGeometry width="120" height="200" as="geometry" />
        </mxCell>
        <mxCell id="NLgJp8nWloe0aNjy3LlE-41" value="ICの内部" style="text;html=1;align=center;verticalAlign=middle;whiteSpace=wrap;rounded=0;" vertex="1" parent="NLgJp8nWloe0aNjy3LlE-39">
          <mxGeometry x="30" width="60" height="30" as="geometry" />
        </mxCell>
        <mxCell id="NLgJp8nWloe0aNjy3LlE-42" value="" style="pointerEvents=1;verticalLabelPosition=bottom;shadow=0;dashed=0;align=center;html=1;verticalAlign=top;shape=mxgraph.electrical.resistors.resistor_2;rotation=90;" vertex="1" parent="NLgJp8nWloe0aNjy3LlE-39">
          <mxGeometry x="70" y="70" width="30" height="10" as="geometry" />
        </mxCell>
        <mxCell id="NLgJp8nWloe0aNjy3LlE-43" value="" style="shape=waypoint;sketch=0;fillStyle=solid;size=6;pointerEvents=1;points=[];fillColor=none;resizable=0;rotatable=0;perimeter=centerPerimeter;snapToPoint=1;" vertex="1" parent="NLgJp8nWloe0aNjy3LlE-39">
          <mxGeometry x="75" y="80" width="20" height="20" as="geometry" />
        </mxCell>
        <mxCell id="NLgJp8nWloe0aNjy3LlE-44" value="" style="endArrow=none;html=1;rounded=0;exitX=0.412;exitY=0.655;exitDx=0;exitDy=0;exitPerimeter=0;" edge="1" parent="NLgJp8nWloe0aNjy3LlE-39" source="NLgJp8nWloe0aNjy3LlE-43">
          <mxGeometry width="50" height="50" relative="1" as="geometry">
            <mxPoint x="50" y="100" as="sourcePoint" />
            <mxPoint x="120" y="90" as="targetPoint" />
          </mxGeometry>
        </mxCell>
        <mxCell id="NLgJp8nWloe0aNjy3LlE-45" value="" style="verticalLabelPosition=bottom;shadow=0;dashed=0;align=center;html=1;verticalAlign=top;shape=mxgraph.electrical.transistors.npn_transistor_5;" vertex="1" parent="NLgJp8nWloe0aNjy3LlE-39">
          <mxGeometry x="40" y="90" width="44" height="70" as="geometry" />
        </mxCell>
        <mxCell id="NLgJp8nWloe0aNjy3LlE-46" value="B" style="text;html=1;align=center;verticalAlign=middle;whiteSpace=wrap;rounded=0;" vertex="1" parent="NLgJp8nWloe0aNjy3LlE-39">
          <mxGeometry x="40" y="100" width="15" height="30" as="geometry" />
        </mxCell>
        <mxCell id="NLgJp8nWloe0aNjy3LlE-47" value="" style="endArrow=none;html=1;rounded=0;" edge="1" parent="NLgJp8nWloe0aNjy3LlE-39">
          <mxGeometry width="50" height="50" relative="1" as="geometry">
            <mxPoint x="84" y="180" as="sourcePoint" />
            <mxPoint x="84" y="160" as="targetPoint" />
            <Array as="points">
              <mxPoint x="84" y="150" />
            </Array>
          </mxGeometry>
        </mxCell>
        <mxCell id="NLgJp8nWloe0aNjy3LlE-48" value="" style="endArrow=none;html=1;rounded=0;" edge="1" parent="NLgJp8nWloe0aNjy3LlE-39">
          <mxGeometry width="50" height="50" relative="1" as="geometry">
            <mxPoint x="95" y="180" as="sourcePoint" />
            <mxPoint x="75" y="180" as="targetPoint" />
          </mxGeometry>
        </mxCell>
        <mxCell id="NLgJp8nWloe0aNjy3LlE-49" value="" style="verticalLabelPosition=top;verticalAlign=bottom;shape=mxgraph.electrical.signal_sources.vdd;shadow=0;dashed=0;align=center;strokeWidth=1;fontSize=24;html=1;flipV=1;" vertex="1" parent="NLgJp8nWloe0aNjy3LlE-39">
          <mxGeometry x="80" y="50" width="10" height="10" as="geometry" />
        </mxCell>
        <mxCell id="NLgJp8nWloe0aNjy3LlE-50" value="&lt;div style=&quot;&quot;&gt;&lt;span style=&quot;font-size: 10px;&quot;&gt;GND&lt;/span&gt;&lt;/div&gt;" style="text;html=1;align=center;verticalAlign=middle;whiteSpace=wrap;rounded=0;" vertex="1" parent="NLgJp8nWloe0aNjy3LlE-39">
          <mxGeometry x="70" y="190" width="30" as="geometry" />
        </mxCell>
        <mxCell id="NLgJp8nWloe0aNjy3LlE-51" value="" style="rounded=0;whiteSpace=wrap;html=1;" vertex="1" parent="NLgJp8nWloe0aNjy3LlE-39">
          <mxGeometry x="120" y="80" width="10" height="20" as="geometry" />
        </mxCell>
        <mxCell id="NLgJp8nWloe0aNjy3LlE-52" value="C" style="text;html=1;align=center;verticalAlign=middle;whiteSpace=wrap;rounded=0;" vertex="1" parent="NLgJp8nWloe0aNjy3LlE-39">
          <mxGeometry x="75" y="92.5" width="30" height="15" as="geometry" />
        </mxCell>
        <mxCell id="NLgJp8nWloe0aNjy3LlE-53" value="E" style="text;html=1;align=center;verticalAlign=middle;whiteSpace=wrap;rounded=0;" vertex="1" parent="NLgJp8nWloe0aNjy3LlE-39">
          <mxGeometry x="60" y="130" width="60" height="30" as="geometry" />
        </mxCell>
        <mxCell id="NLgJp8nWloe0aNjy3LlE-71" value="" style="endArrow=classic;html=1;rounded=0;" edge="1" parent="NLgJp8nWloe0aNjy3LlE-39">
          <mxGeometry width="50" height="50" relative="1" as="geometry">
            <mxPoint x="39.670000000000016" y="125" as="sourcePoint" />
            <mxPoint x="39.670000000000016" y="50" as="targetPoint" />
          </mxGeometry>
        </mxCell>
        <mxCell id="NLgJp8nWloe0aNjy3LlE-83" value="+5V" style="text;html=1;align=center;verticalAlign=middle;whiteSpace=wrap;rounded=0;" vertex="1" parent="NLgJp8nWloe0aNjy3LlE-39">
          <mxGeometry x="55" y="30" width="60" height="30" as="geometry" />
        </mxCell>
        <mxCell id="NLgJp8nWloe0aNjy3LlE-54" value="" style="group" vertex="1" connectable="0" parent="1">
          <mxGeometry x="480" y="120" width="130" height="200" as="geometry" />
        </mxCell>
        <mxCell id="NLgJp8nWloe0aNjy3LlE-55" value="" style="rounded=0;whiteSpace=wrap;html=1;" vertex="1" parent="NLgJp8nWloe0aNjy3LlE-54">
          <mxGeometry width="120" height="200" as="geometry" />
        </mxCell>
        <mxCell id="NLgJp8nWloe0aNjy3LlE-56" value="ICの内部" style="text;html=1;align=center;verticalAlign=middle;whiteSpace=wrap;rounded=0;" vertex="1" parent="NLgJp8nWloe0aNjy3LlE-54">
          <mxGeometry x="30" width="60" height="30" as="geometry" />
        </mxCell>
        <mxCell id="NLgJp8nWloe0aNjy3LlE-57" value="" style="pointerEvents=1;verticalLabelPosition=bottom;shadow=0;dashed=0;align=center;html=1;verticalAlign=top;shape=mxgraph.electrical.resistors.resistor_2;rotation=90;" vertex="1" parent="NLgJp8nWloe0aNjy3LlE-54">
          <mxGeometry x="70" y="70" width="30" height="10" as="geometry" />
        </mxCell>
        <mxCell id="NLgJp8nWloe0aNjy3LlE-58" value="" style="shape=waypoint;sketch=0;fillStyle=solid;size=6;pointerEvents=1;points=[];fillColor=none;resizable=0;rotatable=0;perimeter=centerPerimeter;snapToPoint=1;" vertex="1" parent="NLgJp8nWloe0aNjy3LlE-54">
          <mxGeometry x="75" y="80" width="20" height="20" as="geometry" />
        </mxCell>
        <mxCell id="NLgJp8nWloe0aNjy3LlE-59" value="" style="endArrow=none;html=1;rounded=0;exitX=0.412;exitY=0.655;exitDx=0;exitDy=0;exitPerimeter=0;" edge="1" parent="NLgJp8nWloe0aNjy3LlE-54" source="NLgJp8nWloe0aNjy3LlE-58">
          <mxGeometry width="50" height="50" relative="1" as="geometry">
            <mxPoint x="50" y="100" as="sourcePoint" />
            <mxPoint x="120" y="90" as="targetPoint" />
          </mxGeometry>
        </mxCell>
        <mxCell id="NLgJp8nWloe0aNjy3LlE-60" value="" style="verticalLabelPosition=bottom;shadow=0;dashed=0;align=center;html=1;verticalAlign=top;shape=mxgraph.electrical.transistors.npn_transistor_5;" vertex="1" parent="NLgJp8nWloe0aNjy3LlE-54">
          <mxGeometry x="40" y="90" width="44" height="70" as="geometry" />
        </mxCell>
        <mxCell id="NLgJp8nWloe0aNjy3LlE-61" value="B" style="text;html=1;align=center;verticalAlign=middle;whiteSpace=wrap;rounded=0;" vertex="1" parent="NLgJp8nWloe0aNjy3LlE-54">
          <mxGeometry x="40" y="100" width="15" height="30" as="geometry" />
        </mxCell>
        <mxCell id="NLgJp8nWloe0aNjy3LlE-62" value="" style="endArrow=none;html=1;rounded=0;" edge="1" parent="NLgJp8nWloe0aNjy3LlE-54">
          <mxGeometry width="50" height="50" relative="1" as="geometry">
            <mxPoint x="84" y="180" as="sourcePoint" />
            <mxPoint x="84" y="160" as="targetPoint" />
            <Array as="points">
              <mxPoint x="84" y="150" />
            </Array>
          </mxGeometry>
        </mxCell>
        <mxCell id="NLgJp8nWloe0aNjy3LlE-63" value="" style="endArrow=none;html=1;rounded=0;" edge="1" parent="NLgJp8nWloe0aNjy3LlE-54">
          <mxGeometry width="50" height="50" relative="1" as="geometry">
            <mxPoint x="95" y="180" as="sourcePoint" />
            <mxPoint x="75" y="180" as="targetPoint" />
          </mxGeometry>
        </mxCell>
        <mxCell id="NLgJp8nWloe0aNjy3LlE-64" value="" style="verticalLabelPosition=top;verticalAlign=bottom;shape=mxgraph.electrical.signal_sources.vdd;shadow=0;dashed=0;align=center;strokeWidth=1;fontSize=24;html=1;flipV=1;" vertex="1" parent="NLgJp8nWloe0aNjy3LlE-54">
          <mxGeometry x="80" y="50" width="10" height="10" as="geometry" />
        </mxCell>
        <mxCell id="NLgJp8nWloe0aNjy3LlE-65" value="&lt;div style=&quot;&quot;&gt;&lt;span style=&quot;font-size: 10px;&quot;&gt;GND&lt;/span&gt;&lt;/div&gt;" style="text;html=1;align=center;verticalAlign=middle;whiteSpace=wrap;rounded=0;" vertex="1" parent="NLgJp8nWloe0aNjy3LlE-54">
          <mxGeometry x="70" y="190" width="30" as="geometry" />
        </mxCell>
        <mxCell id="NLgJp8nWloe0aNjy3LlE-66" value="" style="rounded=0;whiteSpace=wrap;html=1;" vertex="1" parent="NLgJp8nWloe0aNjy3LlE-54">
          <mxGeometry x="120" y="80" width="10" height="20" as="geometry" />
        </mxCell>
        <mxCell id="NLgJp8nWloe0aNjy3LlE-67" value="C" style="text;html=1;align=center;verticalAlign=middle;whiteSpace=wrap;rounded=0;" vertex="1" parent="NLgJp8nWloe0aNjy3LlE-54">
          <mxGeometry x="75" y="92.5" width="30" height="15" as="geometry" />
        </mxCell>
        <mxCell id="NLgJp8nWloe0aNjy3LlE-68" value="E" style="text;html=1;align=center;verticalAlign=middle;whiteSpace=wrap;rounded=0;" vertex="1" parent="NLgJp8nWloe0aNjy3LlE-54">
          <mxGeometry x="60" y="130" width="60" height="30" as="geometry" />
        </mxCell>
        <mxCell id="NLgJp8nWloe0aNjy3LlE-73" value="" style="endArrow=classic;html=1;rounded=0;" edge="1" parent="NLgJp8nWloe0aNjy3LlE-54">
          <mxGeometry width="50" height="50" relative="1" as="geometry">
            <mxPoint x="40" y="130" as="sourcePoint" />
            <mxPoint x="40" y="180" as="targetPoint" />
          </mxGeometry>
        </mxCell>
        <mxCell id="NLgJp8nWloe0aNjy3LlE-76" value="" style="endArrow=classic;html=1;rounded=0;exitX=-0.007;exitY=0.831;exitDx=0;exitDy=0;exitPerimeter=0;" edge="1" parent="NLgJp8nWloe0aNjy3LlE-54" source="NLgJp8nWloe0aNjy3LlE-61">
          <mxGeometry width="50" height="50" relative="1" as="geometry">
            <mxPoint x="40" y="130" as="sourcePoint" />
            <mxPoint x="40" y="180" as="targetPoint" />
          </mxGeometry>
        </mxCell>
        <mxCell id="NLgJp8nWloe0aNjy3LlE-84" value="+5V" style="text;html=1;align=center;verticalAlign=middle;whiteSpace=wrap;rounded=0;" vertex="1" parent="NLgJp8nWloe0aNjy3LlE-54">
          <mxGeometry x="55" y="30" width="60" height="30" as="geometry" />
        </mxCell>
        <mxCell id="NLgJp8nWloe0aNjy3LlE-77" value="(a)" style="text;html=1;align=center;verticalAlign=middle;whiteSpace=wrap;rounded=0;" vertex="1" parent="1">
          <mxGeometry x="190" y="330" width="60" height="30" as="geometry" />
        </mxCell>
        <mxCell id="NLgJp8nWloe0aNjy3LlE-78" value="(b)" style="text;html=1;align=center;verticalAlign=middle;whiteSpace=wrap;rounded=0;" vertex="1" parent="1">
          <mxGeometry x="350" y="330" width="60" height="30" as="geometry" />
        </mxCell>
        <mxCell id="NLgJp8nWloe0aNjy3LlE-79" value="(c)" style="text;html=1;align=center;verticalAlign=middle;whiteSpace=wrap;rounded=0;" vertex="1" parent="1">
          <mxGeometry x="510" y="330" width="60" height="30" as="geometry" />
        </mxCell>
      </root>
    </mxGraphModel>
  </diagram>
</mxfile>
